<svg version="1.1" viewBox="0.0 0.0 300.0 300.0" fill="none" stroke="none" stroke-linecap="square" stroke-miterlimit="10" xmlns:xlink="http://www.w3.org/1999/xlink" xmlns="http://www.w3.org/2000/svg"><clipPath id="p.0"><path d="m0 0l300.0 0l0 300.0l-300.0 0l0 -300.0z" clip-rule="nonzero"/></clipPath><g clip-path="url(#p.0)"><path fill="#000000" fill-opacity="0.0" d="m0 0l300.0 0l0 300.0l-300.0 0z" fill-rule="evenodd"/><path fill="#ffffff" d="m5.92126 50.40516l0 0c0 -26.524693 21.502514 -48.027206 48.027206 -48.027206l192.10306 0l0 0c12.737625 0 24.953506 5.0599947 33.960373 14.066843c9.006836 9.006849 14.0668335 21.222757 14.0668335 33.960365l0 199.18967c0 26.524704 -21.502502 48.027206 -48.027206 48.027206l-192.10306 0c-26.524694 0 -48.027206 -21.502502 -48.027206 -48.027206z" fill-rule="evenodd"/><path fill="#ff9900" d="m44.9647 14.049867c-7.1992035 0 -12.691925 1.5115328 -16.478178 4.534608c-3.7329159 3.0230732 -5.5993805 7.4086533 -5.5993805 13.156746l0 244.10234c0 5.748108 1.8664646 10.133667 5.5993805 13.156769c3.786253 2.9804688 9.118998 4.4707336 15.998232 4.4707336c12.425289 0 18.637936 -5.875824 18.637936 -17.627502l0 -111.06592l149.90341 0c5.5993805 0 9.945572 -1.1709137 13.038559 -3.5127258c3.092987 -2.3843994 4.6394806 -5.7906647 4.6394806 -10.218842c0 -4.2152557 -1.5464935 -7.493805 -4.6394806 -9.835617c-3.092987 -2.3418274 -7.4391785 -3.5127258 -13.038559 -3.5127258l-149.90341 0l0 -96.56796l160.22229 0c5.5993805 0 9.86557 -1.1709099 12.798584 -3.512722c2.9329987 -2.341816 4.3995056 -5.7480946 4.3995056 -10.218834c0 -4.1726913 -1.466507 -7.429945 -4.3995056 -9.771759c-2.933014 -2.3843956 -7.1992035 -3.5765905 -12.798584 -3.5765905z" fill-rule="evenodd"/><path fill="#0a7e33" d="m102.90469 90.22322l0 0c0 -26.40897 20.16391 -47.81767 45.037354 -47.81767l0 0c11.944656 0 23.400085 5.037918 31.846237 14.00547c8.446136 8.967556 13.191132 21.130169 13.191132 33.8122l0 0c0 26.408974 -20.16391 47.817673 -45.03737 47.817673l0 0c-24.873444 0 -45.037354 -21.408699 -45.037354 -47.817673z" fill-rule="evenodd"/><path fill="#d0e0e3" d="m110.01386 78.78919l12.582207 -14.397827l12.582199 14.397827z" fill-rule="evenodd"/><path stroke="#ffffff" stroke-width="1.0" stroke-linejoin="round" stroke-linecap="butt" d="m110.01386 78.78919l12.582207 -14.397827l12.582199 14.397827z" fill-rule="evenodd"/><path fill="#fff2cc" d="m160.3427 78.78919l12.582199 -14.397827l12.582214 14.397827z" fill-rule="evenodd"/><path stroke="#ffffff" stroke-width="1.0" stroke-linejoin="round" stroke-linecap="butt" d="m160.3427 78.78919l12.582199 -14.397827l12.582214 14.397827z" fill-rule="evenodd"/><path fill="#fce5cd" d="m185.87424 78.79025l-37.93219 51.750183l-37.932175 -51.750183z" fill-rule="evenodd"/><path stroke="#ffffff" stroke-width="1.0" stroke-linejoin="round" stroke-linecap="butt" d="m185.87424 78.79025l-37.93219 51.750183l-37.932175 -51.750183z" fill-rule="evenodd"/><path fill="#d9ead3" d="m135.17827 78.78278l12.582214 -14.391418l12.582214 14.391418l-12.582214 14.391418z" fill-rule="evenodd"/><path stroke="#ffffff" stroke-width="1.0" stroke-linejoin="round" stroke-linecap="butt" d="m135.17827 78.78278l12.582214 -14.391418l12.582214 14.391418l-12.582214 14.391418z" fill-rule="evenodd"/><path fill="#000000" fill-opacity="0.0" d="m122.59607 64.391365l50.328827 0" fill-rule="evenodd"/><path stroke="#ffffff" stroke-width="1.0" stroke-linejoin="round" stroke-linecap="butt" d="m122.59607 64.391365l50.328827 0" fill-rule="evenodd"/><path fill="#000000" fill-opacity="0.0" d="m147.76048 93.1742l0.17958069 37.365166" fill-rule="evenodd"/><path stroke="#ffffff" stroke-width="1.0" stroke-linejoin="round" stroke-linecap="butt" d="m147.76048 93.1742l0.17958069 37.365166" fill-rule="evenodd"/><path fill="#f4cccc" d="m160.92632 78.591934l2.4541779 31.062912l-15.754684 -16.857239z" fill-rule="evenodd"/><path stroke="#ffffff" stroke-width="1.0" stroke-linejoin="round" stroke-linecap="butt" d="m160.92632 78.591934l2.4541779 31.062912l-15.754684 -16.857239z" fill-rule="evenodd"/><path fill="#d9d2e9" d="m134.80415 78.7741l-2.6217804 30.883575l15.754684 -16.857231z" fill-rule="evenodd"/><path stroke="#ffffff" stroke-width="1.0" stroke-linejoin="round" stroke-linecap="butt" d="m134.80415 78.7741l-2.6217804 30.883575l15.754684 -16.857231z" fill-rule="evenodd"/><path fill="#cfe2f3" d="m147.52106 124.0407l-15.239914 -15.435387l15.239914 -15.435387z" fill-rule="evenodd"/><path stroke="#ffffff" stroke-width="1.0" stroke-linejoin="round" stroke-linecap="butt" d="m147.52106 124.0407l-15.239914 -15.435387l15.239914 -15.435387z" fill-rule="evenodd"/><path fill="#76a5af" d="m147.93707 124.0407l15.239914 -15.435387l-15.239914 -15.435387z" fill-rule="evenodd"/><path stroke="#ffffff" stroke-width="1.0" stroke-linejoin="round" stroke-linecap="butt" d="m147.93707 124.0407l15.239914 -15.435387l-15.239914 -15.435387z" fill-rule="evenodd"/><path fill="#ff9900" d="m85.94867 206.89175c3.7639313 0 6.909973 1.2809448 9.438133 3.842865c2.5375824 2.5535126 3.8063812 6.312393 3.8063812 11.276627c0 5.266617 -1.2593613 9.185089 -3.7780838 11.755402c-2.5187225 2.5703125 -5.6741943 3.8554688 -9.466431 3.8554688c-3.8205261 0 -6.990158 -1.2767487 -9.508873 -3.8302612c-2.5187225 -2.5619202 -3.7780838 -6.4131927 -3.7780838 -11.553818c0 -5.140625 1.2593613 -8.983505 3.7780838 -11.5286255c2.518715 -2.545105 5.688347 -3.8176575 9.508873 -3.8176575zm0 -5.632019c-5.575142 0 -10.301285 1.4867554 -14.178413 4.460251c-4.641243 3.5782776 -6.9618607 9.08429 -6.9618607 16.518051c0 6.7785645 1.9432831 11.969589 5.8298492 15.573074c3.8960037 3.603485 8.999474 5.4052277 15.310425 5.4052277c3.9337387 0 7.5608826 -0.818985 10.881447 -2.4569244c3.3299866 -1.6379395 5.8628616 -3.9352722 7.59861 -6.891968c1.7451782 -2.9651031 2.617775 -7.0305634 2.617775 -12.196396c0 -6.3753815 -1.9668732 -11.369019 -5.9006042 -14.980896c-3.933731 -3.620285 -8.999474 -5.43042 -15.1972275 -5.43042z" fill-rule="evenodd"/><path fill="#ff9900" d="m132.55916 201.25974c-1.7829132 0 -3.4196167 0.45358276 -4.9100876 1.3607483c-1.4810486 0.9071808 -3.098877 2.7845154 -4.8534927 5.632019l0 -6.085602l-6.876953 0l0 40.142258l7.64106 0l0 -21.016098c0 -2.872696 0.42450714 -5.5186157 1.2735138 -7.937729c0.5660019 -1.5875549 1.514061 -2.8265076 2.8441696 -3.7168732c1.3301086 -0.8987732 2.830017 -1.3481598 4.4997406 -1.3481598c1.8678131 0 3.7356262 0.49137878 5.6034393 1.4741516l2.6319275 -6.312393c-2.6602173 -1.4615479 -5.278 -2.1923218 -7.8533173 -2.1923218z" fill-rule="evenodd"/><path fill="#ff9900" d="m162.1046 206.89175c3.4526367 0 6.4005737 1.247345 8.843826 3.7420654c2.4526978 2.4947205 3.6790314 6.19899 3.6790314 11.1128235c0 5.1406403 -1.1886139 8.916306 -3.5658264 11.327026c-2.3772278 2.4023132 -5.32045 3.603485 -8.829681 3.603485c-3.5375214 0 -6.4807434 -1.2095642 -8.829666 -3.6286774c-2.3489227 -2.4191284 -3.5233765 -6.2619934 -3.5233765 -11.5286255c0 -4.8382263 1.1886139 -8.483704 3.5658264 -10.936432c2.3772278 -2.4611206 5.2638397 -3.6916656 8.659866 -3.6916656zm-0.55184937 -5.632019c-3.990326 0 -7.4665375 0.88197327 -10.428635 2.6459045c-2.952652 1.7639465 -5.207245 4.2670593 -6.7637634 7.5093536c-1.5565033 3.233902 -2.3347626 6.765976 -2.3347626 10.596252c0 5.5690155 1.6980133 10.344254 5.09404 14.325714c3.3960266 3.9814758 8.192917 5.9721985 14.390671 5.9721985c4.980835 0 9.140976 -1.7513428 12.480408 -5.254013l0 0c0.028289795 4.4350433 -0.1556549 7.3455505 -0.5518646 8.731506c-0.6791992 2.2679138 -1.9810028 4.0318604 -3.905426 5.2918243c-1.9244232 1.2599487 -4.6553955 1.8899384 -8.192917 1.8899384c-3.2828217 0 -5.872299 -0.6299896 -7.7684174 -1.8899384c-1.4150085 -0.93237305 -2.2781677 -2.4191284 -2.5894623 -4.460251l-7.4288177 -0.9827728l0 0c-0.113204956 4.334259 1.4857635 7.5765533 4.7968903 9.726868c3.3111267 2.1587372 7.6552124 3.2381134 13.032257 3.2381134c4.5280304 0 8.339142 -0.75598145 11.433289 -2.2679443c3.103592 -1.5119476 5.3676147 -3.5740662 6.7920685 -6.186386c1.4338684 -2.6039124 2.1508179 -7.0305634 2.1508179 -13.279953l0 -34.69925l-7.046768 0l0 4.8382416c-3.4526215 -3.8302765 -7.839157 -5.745407 -13.159607 -5.745407z" fill-rule="evenodd"/><path fill="#ff9900" d="m211.89886 206.85394c3.8771362 0 7.032608 1.3103638 9.466431 3.931076c1.5848083 1.6883392 2.5470276 4.2208557 2.8866272 7.5975494l-25.173065 0c0.25471497 -3.5026855 1.5753784 -6.2997894 3.9620361 -8.391327c2.3960876 -2.0915222 5.3487396 -3.1372986 8.857971 -3.1372986zm-0.0848999 -5.594208c-6.2260437 0 -11.291794 1.8647308 -15.19722 5.594208c-3.9054413 3.729477 -5.8581543 8.9709015 -5.8581543 15.724274c0 6.526581 1.9291382 11.600021 5.7873993 15.220291c3.8677063 3.6118774 9.098526 5.4178314 15.69249 5.4178314c5.2355347 0 9.53717 -1.1339722 12.904907 -3.401886c3.3677216 -2.267929 5.6741943 -5.4556274 6.919403 -9.56308l-7.895767 -0.86938477c-1.1603088 2.8727112 -2.7309723 4.9642334 -4.7119904 6.274597c-1.9810181 1.3103485 -4.3723907 1.9655304 -7.174103 1.9655304c-3.7639313 0 -6.905258 -1.1717529 -9.423981 -3.515274c-2.5187225 -2.343521 -3.9195862 -5.720215 -4.202591 -10.130066l33.62068 0c0.028305054 -0.80636597 0.04244995 -1.4111481 0.04244995 -1.8143463c0 -6.627365 -1.9102631 -11.768005 -5.7308044 -15.421875c-3.8205261 -3.653885 -8.744766 -5.4808197 -14.77272 -5.4808197z" fill-rule="evenodd"/></g></svg>